<?xml version="1.0" encoding="UTF-8"?>
<svg xmlns="http://www.w3.org/2000/svg" xmlns:xlink="http://www.w3.org/1999/xlink" viewBox="0 0 89.43 89.44">
  <defs>
    <style>
      .cls-1 {
        fill: url(#Degradado_sin_nombre_44);
        mix-blend-mode: multiply;
        opacity: .8;
      }

      .cls-2 {
        fill: url(#linear-gradient-3);
      }

      .cls-3 {
        fill: url(#linear-gradient-2);
      }

      .cls-4 {
        fill: url(#linear-gradient);
      }

      .cls-5 {
        isolation: isolate;
      }
    </style>
    <radialGradient id="Degradado_sin_nombre_44" data-name="Degradado sin nombre 44" cx="44.71" cy="44.72" fx="44.71" fy="44.72" r="44.72" gradientUnits="userSpaceOnUse">
      <stop offset="0" stop-color="#010101"/>
      <stop offset="1" stop-color="#fff" stop-opacity="0"/>
    </radialGradient>
    <linearGradient id="linear-gradient" x1="55.64" y1="80.28" x2="23.2" y2="-7.55" gradientUnits="userSpaceOnUse">
      <stop offset="0" stop-color="#a3cd3a"/>
      <stop offset="1" stop-color="#fe0"/>
    </linearGradient>
    <linearGradient id="linear-gradient-2" x1="62.81" y1="74.06" x2="21.06" y2=".05" gradientUnits="userSpaceOnUse">
      <stop offset="0" stop-color="#a3cd3a"/>
      <stop offset="1" stop-color="#faf7c9"/>
    </linearGradient>
    <linearGradient id="linear-gradient-3" x1="58.34" y1="76.58" x2="16.59" y2="2.57" xlink:href="#linear-gradient-2"/>
  </defs>
  <g class="cls-5">
    <g id="Layer_1" data-name="Layer 1">
      <g>
        <path class="cls-1" d="M44.71,0c-3.67,0-7.23.44-10.65,1.27-.01.01-.04.01-.05.01-.01.01-.04.01-.05.01-.01.01-.04.01-.05.01-.01.01-.04.01-.05.01-.01.01-.04.01-.05.01C16.02,5.79,2.45,20.92.3,39.53H.3c-.2,1.71-.3,3.44-.3,5.19,0,24.69,20.02,44.72,44.71,44.72s44.72-20.03,44.72-44.72S69.41,0,44.71,0ZM41.43,5.42c20.06,0,36.39,16.33,36.39,36.4s-16.32,36.39-36.39,36.39S5.04,61.88,5.04,41.82,21.37,5.42,41.43,5.42Z"/>
        <path class="cls-4" d="M41.43.62c-2.54,0-4.96.24-7.38.65-.01.01-.04.01-.05.01-.01.01-.04.01-.05.01-.01.01-.04.01-.05.01-.01.01-.04.01-.05.01-.01.01-.04.01-.05.01C15.46,4.77,1.36,20.44.3,39.53H.3c-.04.77-.06,1.52-.06,2.29,0,22.7,18.48,41.18,41.19,41.18s41.18-18.48,41.18-41.18S64.14.62,41.43.62ZM41.43,78.2c-20.06,0-36.4-16.32-36.4-36.39S21.37,5.42,41.43,5.42s36.39,16.33,36.39,36.4-16.32,36.39-36.39,36.39Z"/>
        <g>
          <path class="cls-3" d="M53.34,43.12c-1.04-.62-2.39-1.31-3.61-.81-.94.38-1.53,1.85-2.14,2.6-.31.38-.68.44-1.16.25-3.52-1.4-6.21-3.75-8.15-6.98-.33-.5-.27-.9.13-1.36.59-.69,1.32-1.47,1.48-2.4.16-.93-.28-2.02-.66-2.85-.49-1.06-1.04-2.57-2.1-3.17-.97-.55-2.26-.24-3.13.46-1.5,1.22-2.22,3.13-2.2,5.03,0,.54.07,1.08.2,1.6.3,1.25.88,2.42,1.53,3.53.49.84,1.02,1.65,1.6,2.43,1.88,2.55,4.22,4.77,6.93,6.43,1.35.83,2.81,1.56,4.32,2.05,1.69.56,3.2,1.14,5.03.79,1.91-.36,3.8-1.55,4.56-3.39.22-.55.34-1.15.21-1.73-.26-1.19-1.87-1.9-2.84-2.48Z"/>
          <path class="cls-2" d="M43.38,14.84c-13.88,0-25.18,11.3-25.18,25.18,0,4.25,1.09,8.43,3.16,12.16l-3.66,13.64,13.71-3.67c3.68,2,7.8,3.05,11.97,3.05,13.88,0,25.18-11.3,25.18-25.18s-11.3-25.18-25.18-25.18ZM43.38,60.44c-3.65,0-7.26-1-10.42-2.89l-.86-.51-7.66,2.05,2.04-7.61-.53-.87c-1.95-3.21-2.99-6.87-2.99-10.59,0-11.26,9.16-20.42,20.42-20.42s20.42,9.16,20.42,20.42-9.16,20.42-20.42,20.42Z"/>
        </g>
      </g>
    </g>
  </g>
</svg>