<?xml version="1.0" encoding="UTF-8"?>
<svg xmlns="http://www.w3.org/2000/svg" xmlns:xlink="http://www.w3.org/1999/xlink" viewBox="0 0 89.43 89.44">
  <defs>
    <style>
      .cls-1 {
        fill: url(#Degradado_sin_nombre_44);
        mix-blend-mode: multiply;
        opacity: .8;
      }

      .cls-2 {
        fill: #fff;
        fill-rule: evenodd;
      }

      .cls-3 {
        fill: url(#linear-gradient-2);
      }

      .cls-4 {
        fill: url(#linear-gradient);
      }

      .cls-5 {
        isolation: isolate;
      }
    </style>
    <radialGradient id="Degradado_sin_nombre_44" data-name="Degradado sin nombre 44" cx="44.71" cy="44.72" fx="44.71" fy="44.72" r="44.72" gradientUnits="userSpaceOnUse">
      <stop offset="0" stop-color="#010101"/>
      <stop offset="1" stop-color="#fff" stop-opacity="0"/>
    </radialGradient>
    <linearGradient id="linear-gradient" x1="57.83" y1="78.55" x2="18.27" y2="-10.06" gradientUnits="userSpaceOnUse">
      <stop offset="0" stop-color="#a3cd3a"/>
      <stop offset="1" stop-color="#faf7c9"/>
    </linearGradient>
    <linearGradient id="linear-gradient-2" x1="53.77" y1="75.89" x2="31" y2="10.73" xlink:href="#linear-gradient"/>
  </defs>
  <g class="cls-5">
    <g id="Layer_1" data-name="Layer 1">
      <g>
        <path class="cls-2" d="M30.91,61.57c-.06,0-.79,0,0,0,0,0-.13,0,0,0Z"/>
        <path class="cls-2" d="M32.52,61.62c0-.08.85,0,0,0,0-.04.1,0,0,0Z"/>
        <path class="cls-1" d="M44.71,0c-3.72,0-7.34.46-10.79,1.32-.01.01-.04.01-.05.01-.01.01-.04.01-.05.01C16.02,5.79,2.45,20.93.3,39.53H.3c-.2,1.71-.3,3.44-.3,5.19,0,24.7,20.02,44.72,44.71,44.72s44.72-20.02,44.72-44.72S69.41,0,44.71,0ZM41.43,5.43c20.06,0,36.39,16.32,36.39,36.39s-16.32,36.4-36.39,36.4S5.04,61.88,5.04,41.82,21.37,5.43,41.43,5.43Z"/>
        <path class="cls-4" d="M41.43.64c-2.58,0-5.07.24-7.52.68-.01.01-.04.01-.05.01-.01.01-.04.01-.05.01C15.46,4.79,1.36,20.45.3,39.53H.3c-.04.77-.06,1.52-.06,2.29,0,22.71,18.48,41.19,41.19,41.19s41.18-18.48,41.18-41.19S64.14.64,41.43.64ZM41.43,78.22c-20.06,0-36.4-16.33-36.4-36.4S21.37,5.43,41.43,5.43s36.39,16.32,36.39,36.39-16.32,36.4-36.39,36.4Z"/>
        <path class="cls-3" d="M65.61,26.86c-1.52.69-3.5,1.1-5.13,1.38.78-.13,1.77-1.54,2.23-2.11.7-.87,1.2-1.86,1.53-2.93.04-.08.03-.19-.05-.25-.1-.04-.19-.02-.28.02-1.83.98-3.73,1.69-5.74,2.19-.17.04-.3,0-.4-.1-.17-.19-.33-.37-.5-.51-.85-.72-1.75-1.28-2.78-1.7-1.34-.55-2.81-.78-4.26-.69-1.41.09-2.79.49-4.04,1.14-1.25.65-2.37,1.56-3.26,2.66-.92,1.14-1.6,2.48-1.95,3.9-.34,1.37-.31,2.73-.1,4.12.03.23.01.26-.2.23-7.87-1.17-14.4-3.99-19.7-10.03-.23-.26-.35-.26-.54.02-2.32,3.47-1.19,9.06,1.7,11.8.39.37.78.73,1.21,1.07-.16.03-2.08-.18-3.8-1.07-.23-.15-.35-.06-.37.2-.02.38.01.72.06,1.13.45,3.52,2.88,6.78,6.23,8.05.4.17.84.31,1.26.39-.76.17-1.55.29-3.73.12-.27-.05-.38.08-.27.34,1.64,4.47,5.18,5.8,7.83,6.56.35.06.71.06,1.07.15-.02.03-.04.03-.06.06-.88,1.34-3.93,2.34-5.35,2.84-2.58.9-5.39,1.31-8.12,1.04-.44-.06-.53-.06-.65,0-.12.07-.01.18.13.29.55.37,1.12.69,1.69,1,1.73.92,3.54,1.65,5.43,2.17,9.76,2.7,20.75.71,28.08-6.57,5.75-5.72,7.77-13.6,7.77-21.5,0-.31.37-.48.58-.64,1.5-1.13,3.3-2.47,4.42-3.97.25-.34.85-.64.85-.76v-.04c0-.13-.6-.09-.8,0Z"/>
      </g>
    </g>
  </g>
</svg>