<?xml version="1.0" encoding="UTF-8"?>
<svg xmlns="http://www.w3.org/2000/svg" xmlns:xlink="http://www.w3.org/1999/xlink" viewBox="0 0 89.43 89.44">
  <defs>
    <style>
      .cls-1 {
        fill: url(#Degradado_sin_nombre_44);
        mix-blend-mode: multiply;
        opacity: .8;
      }

      .cls-2 {
        fill: url(#linear-gradient-2);
      }

      .cls-3 {
        fill: url(#linear-gradient);
      }

      .cls-4 {
        isolation: isolate;
      }
    </style>
    <radialGradient id="Degradado_sin_nombre_44" data-name="Degradado sin nombre 44" cx="44.71" cy="44.72" fx="44.71" fy="44.72" r="44.72" gradientUnits="userSpaceOnUse">
      <stop offset="0" stop-color="#010101"/>
      <stop offset="1" stop-color="#fff" stop-opacity="0"/>
    </radialGradient>
    <linearGradient id="linear-gradient" x1="60.49" y1="78.59" x2="15.39" y2="-8.44" gradientUnits="userSpaceOnUse">
      <stop offset="0" stop-color="#a3cd3a"/>
      <stop offset="1" stop-color="#fe0"/>
    </linearGradient>
    <linearGradient id="linear-gradient-2" x1="61.21" y1="72.77" x2="20.73" y2="10.78" gradientUnits="userSpaceOnUse">
      <stop offset="0" stop-color="#a3cd3a"/>
      <stop offset="1" stop-color="#faf7c9"/>
    </linearGradient>
  </defs>
  <g class="cls-4">
    <g id="Layer_1" data-name="Layer 1">
      <g>
        <path class="cls-1" d="M44.72,0c-3.75,0-7.39.46-10.87,1.33h-.02C16.09,5.77,2.57,20.8.32,39.3v.05c-.22,1.76-.32,3.55-.32,5.37,0,24.69,20.02,44.72,44.72,44.72s44.71-20.03,44.71-44.72S69.41,0,44.72,0ZM41.43,5.42c20.06,0,36.39,16.33,36.39,36.4s-16.32,36.39-36.39,36.39S5.05,61.88,5.05,41.82,21.37,5.42,41.43,5.42Z"/>
        <path class="cls-3" d="M41.43.62c-2.59,0-5.13.24-7.58.71h-.02C15.54,4.76,1.48,20.32.32,39.3v.05c-.05.82-.07,1.63-.07,2.47,0,22.7,18.47,41.18,41.18,41.18s41.18-18.48,41.18-41.18S64.15.62,41.43.62ZM41.43,78.2c-20.06,0-36.39-16.32-36.39-36.39S21.37,5.42,41.43,5.42s36.39,16.33,36.39,36.4-16.32,36.39-36.39,36.39Z"/>
        <path class="cls-2" d="M64.58,34.94c0-5.81-4.71-10.53-10.53-10.53h-26.92c-5.81,0-10.53,4.71-10.53,10.53v12.53c0,5.81,4.71,10.53,10.53,10.53h26.92c5.81,0,10.53-4.71,10.53-10.53v-12.53ZM48.75,42.64l-12.07,5.97c-.47.26-2.08-.09-2.08-.62v-12.26c0-.55,1.62-.89,2.09-.62l11.55,6.29c.48.28.99.98.5,1.24Z"/>
      </g>
    </g>
  </g>
</svg>